<svg version="1.1" id="Layer_1" xmlns="http://www.w3.org/2000/svg" xmlns:xlink="http://www.w3.org/1999/xlink" x="0px" y="0px"
	 width="100%" viewBox="225 145 575 210" enable-background="new 225 145 575 210" xml:space="preserve">
<path fill="#528089" opacity="1.000000" stroke="none" 
	d="
M365.923340,347.044647 
	C362.623657,340.452301 359.409119,334.235291 356.401520,327.919739 
	C355.093414,325.173004 353.278198,323.994293 350.185944,324.004486 
	C324.858368,324.087860 299.530304,324.086151 274.202667,324.016388 
	C271.309387,324.008392 269.612427,325.103241 268.373810,327.679626 
	C264.765747,335.184814 260.954102,342.591888 257.288971,350.070099 
	C256.278900,352.131042 255.142258,353.822510 252.541840,353.817078 
	C244.212433,353.799683 235.882858,353.825043 227.553741,353.773102 
	C226.786758,353.768341 226.022476,353.330597 225.054535,353.031311 
	C225.361450,349.357025 227.492065,346.682404 228.971313,343.816559 
	C250.975464,301.186279 273.104401,258.620270 295.035828,215.952682 
	C297.080566,211.974625 299.485565,210.341248 303.963440,210.625656 
	C309.938171,211.005127 315.962738,210.907990 321.950806,210.656265 
	C325.619263,210.502045 327.646210,211.846756 329.336243,215.125183 
	C348.723053,252.732513 368.249786,290.267700 387.742767,327.820251 
	C391.272980,334.621063 394.845398,341.400208 398.335876,348.221313 
	C399.062897,349.642029 400.324707,350.944763 399.607971,353.882446 
	C394.454193,353.882446 389.051086,353.881561 383.647980,353.882843 
	C381.315155,353.883392 378.942566,353.614594 376.657379,353.946014 
	C371.181122,354.740265 367.671783,352.695221 365.923340,347.044647 
M322.498596,299.679871 
	C328.580200,299.679871 334.661804,299.679871 342.106812,299.679871 
	C331.926361,279.251892 322.381409,260.099091 312.248749,239.767029 
	C302.064606,260.347809 292.601349,279.471741 282.601898,299.679291 
	C296.597839,299.679291 309.048462,299.679291 322.498596,299.679871 
z"/>
<path fill="#528089" opacity="1.000000" stroke="none" 
	d="
M457.270813,333.999329 
	C457.268097,339.330719 457.142273,344.166443 457.305115,348.992462 
	C457.417450,352.322296 456.231140,353.972443 452.754181,353.928375 
	C446.257751,353.846039 439.759003,353.848633 433.262299,353.919159 
	C429.790436,353.956787 428.711914,352.289520 428.716492,348.968445 
	C428.777802,304.484436 428.780823,260.000244 428.698364,215.516312 
	C428.691345,211.724136 430.286774,210.664993 433.812561,210.679153 
	C457.303772,210.773590 480.799011,210.498337 504.285706,210.839569 
	C516.739136,211.020523 528.781250,213.665390 539.338196,220.847198 
	C554.329102,231.045502 560.694702,245.844482 559.892944,263.355713 
	C559.005676,282.735168 549.392700,297.050995 531.537903,305.288513 
	C522.973938,309.239532 513.854675,311.187897 504.430389,311.281219 
	C490.603333,311.418152 476.771820,311.467010 462.946930,311.249695 
	C458.561188,311.180756 456.982208,312.648712 457.206238,317.008972 
	C457.487946,322.492462 457.272034,328.001526 457.270813,333.999329 
M457.283203,265.499603 
	C457.285583,270.824432 457.513824,276.162048 457.213501,281.469757 
	C457.001770,285.211700 458.366302,286.613861 461.997101,286.452148 
	C477.111450,285.779022 492.273865,287.005249 507.359741,285.632874 
	C525.455688,283.986633 535.555176,267.644897 528.894104,251.010178 
	C524.971619,241.214508 516.890259,236.769836 506.964111,236.382568 
	C491.844360,235.792664 476.690826,236.091995 461.552368,235.940399 
	C458.278595,235.907623 457.216064,237.438660 457.257782,240.538574 
	C457.365326,248.524307 457.287170,256.512512 457.283203,265.499603 
z"/>
<path fill="#528089" opacity="1.000000" stroke="none" 
	d="
M697.513916,219.503510 
	C707.623474,232.949081 717.513489,246.110092 727.383667,259.244568 
	C729.851990,258.305878 730.710388,256.411377 731.876099,254.866119 
	C742.008301,241.436111 752.152832,228.014923 762.183289,214.509109 
	C764.140564,211.873688 766.305054,210.584824 769.700623,210.653442 
	C779.124878,210.843811 788.555420,210.719452 797.882019,210.719452 
	C798.467712,213.602783 796.762146,214.730362 795.684631,216.099503 
	C779.823303,236.253143 763.995728,256.433990 747.986267,276.469513 
	C745.563843,279.501160 745.504211,281.490631 747.958801,284.568481 
	C764.782959,305.665314 781.413025,326.916962 798.087952,348.132660 
	C799.185730,349.529327 800.696472,350.728027 800.805237,352.689514 
	C799.240784,354.341217 797.307251,353.871643 795.539795,353.883575 
	C787.710144,353.936432 779.877014,353.784027 772.051392,353.969330 
	C768.369324,354.056549 765.879272,352.825378 763.648987,349.806793 
	C752.958435,335.337646 742.067017,321.016815 731.219421,306.664093 
	C730.137756,305.232941 729.364746,303.469055 726.912781,302.478546 
	C722.898193,307.725281 718.744263,313.056915 714.694946,318.466858 
	C706.910339,328.866882 699.109619,339.256622 691.485291,349.773712 
	C689.440552,352.594238 687.195618,354.055023 683.618103,353.980652 
	C675.458679,353.811005 667.293030,353.956940 659.130066,353.930786 
	C657.512878,353.925598 655.750671,354.275970 654.456543,352.688843 
	C654.638733,350.148438 656.664795,348.667786 658.061523,346.901764 
	C674.490234,326.129669 690.923950,305.360474 707.547119,284.744293 
	C710.037781,281.655334 709.886292,279.742249 707.471497,276.717194 
	C691.572083,256.800110 675.875061,236.721375 660.136902,216.675812 
	C659.024658,215.259048 657.616394,213.987396 657.266602,211.997772 
	C658.484192,209.985504 660.517395,210.774384 662.190979,210.749390 
	C668.686646,210.652420 675.273254,211.390228 681.659302,210.550110 
	C689.451599,209.525024 693.839233,213.173004 697.513916,219.503510 
z"/>
<path fill="#528089" opacity="1.000000" stroke="none" 
	d="
M624.975220,321.000000 
	C624.966736,330.492218 624.844910,339.486420 625.001160,348.475769 
	C625.071899,352.546936 623.541443,354.184174 619.414734,353.997955 
	C613.929993,353.750458 608.415527,353.687500 602.934998,353.963776 
	C598.174866,354.203766 596.629395,352.465790 596.647522,347.637268 
	C596.805054,305.674011 596.701904,263.709869 596.746887,221.746078 
	C596.760193,209.325409 595.172302,210.837723 607.516052,210.730072 
	C611.678772,210.693771 615.850281,210.889908 620.002808,210.681992 
	C623.660095,210.498856 625.149902,211.913132 625.034973,215.591812 
	C624.868591,220.915298 624.994202,226.247879 624.993225,231.576569 
	C624.987549,261.217712 624.981323,290.858856 624.975220,321.000000 
z"/>
<g transform="scale(1.15)" transform-origin="610 170">
<path fill="#528089" opacity="1.000000" stroke="none" 
	d="
M621.055542,158.895020 
	C623.301819,160.377777 625.268616,161.628891 627.190857,162.945129 
	C632.950378,166.888947 632.832886,173.715057 626.917358,177.488525 
	C618.498962,182.858551 609.978516,188.072983 601.658813,193.590836 
	C598.701050,195.552536 597.072205,195.117676 595.294861,192.176636 
	C589.046326,181.836823 588.821899,184.072739 598.393738,177.748901 
	C601.988342,175.374023 605.614075,173.046143 609.770508,170.342407 
	C605.940125,166.118835 600.997864,164.305145 597.036682,161.208847 
	C594.882751,159.525192 590.890991,158.862701 591.091064,155.783173 
	C591.350098,151.794907 594.465881,148.648911 597.029724,145.640686 
	C598.636292,143.755585 600.416443,145.581604 601.877075,146.509644 
	C608.198425,150.526031 614.467529,154.624496 621.055542,158.895020 
z"/>
</g>
</svg>