<svg version="1.1" id="Layer_1" xmlns="http://www.w3.org/2000/svg" xmlns:xlink="http://www.w3.org/1999/xlink" x="0px" y="0px"
	 width="100%" viewBox="0 0 1024 1024" enable-background="new 0 0 1024 1024" xml:space="preserve">
<path fill="#000000" opacity="1.000000" stroke="none" 
	d="
M691.007141,600.995605 
	C691.046387,538.677490 691.055298,476.858215 691.141724,415.039032 
	C691.164551,398.714233 691.531311,382.389618 691.503784,366.065308 
	C691.497070,362.066986 692.587219,360.480011 696.837769,360.499268 
	C711.661438,360.566437 726.488770,360.853241 741.313477,360.158417 
	C747.506470,359.868164 747.870789,360.406982 747.872620,366.531128 
	C747.879944,390.858459 747.845154,415.185822 747.802490,439.513123 
	C747.799011,441.514679 747.328918,443.848450 749.202271,445.048920 
	C751.393127,446.452820 752.823364,444.184753 754.344543,443.078644 
	C783.464111,421.904816 828.414185,422.137390 855.896851,443.670685 
	C870.213440,454.888153 877.013977,470.318604 880.242676,487.665100 
	C881.644653,495.197266 882.344177,502.803070 882.327759,510.493622 
	C882.255798,544.152588 882.192383,577.812317 882.388000,611.470215 
	C882.417175,616.488647 880.969299,618.211243 875.901306,618.117859 
	C861.409424,617.850769 846.909607,618.024841 832.412903,617.999817 
	C826.445374,617.989502 826.077698,617.573059 826.078979,611.316040 
	C826.085083,581.500977 826.136780,551.685791 826.067078,521.870911 
	C826.049988,514.560913 825.934998,507.275909 823.912537,500.085175 
	C820.180542,486.816162 811.585205,478.998810 798.225891,476.554779 
	C770.938416,471.562714 749.000854,488.735443 748.374084,516.499146 
	C747.667236,547.809509 748.068176,579.144897 747.987671,610.469360 
	C747.968567,617.910156 747.862427,618.024414 740.472595,618.025574 
	C725.975891,618.027771 711.477173,617.884949 696.983643,618.098572 
	C692.377625,618.166504 690.613525,616.516052 690.934875,611.988159 
	C691.182007,608.506104 690.998047,604.993530 691.007141,600.995605 
z"/>
<path fill="#000000" opacity="1.000000" stroke="none" 
	d="
M503.938599,439.937042 
	C482.991241,461.189240 462.399994,482.298096 441.497192,503.093811 
	C437.715027,506.856598 437.623260,509.216919 440.810242,513.351624 
	C464.605469,544.222534 488.171143,575.270325 511.792969,606.274719 
	C514.358337,609.641846 516.822876,613.085693 519.266968,616.402832 
	C517.174072,618.515442 515.243958,618.004761 513.487305,618.008118 
	C494.993896,618.043762 476.499298,617.922668 458.007690,618.107483 
	C453.868500,618.148804 451.283508,616.634583 448.855347,613.403809 
	C432.841309,592.096619 416.672729,570.905457 400.523926,549.699768 
	C396.463867,544.368286 396.412933,544.407715 391.561829,549.069580 
	C385.797028,554.609436 380.094177,560.216125 374.233032,565.652161 
	C372.102600,567.628052 371.243011,569.767639 371.266602,572.666321 
	C371.373688,585.827393 371.106567,598.994324 371.398743,612.149719 
	C371.504822,616.925964 369.688782,618.151367 365.298492,618.095642 
	C350.639191,617.909485 335.976318,618.012695 321.314880,617.978271 
	C315.307892,617.964172 314.963196,617.620544 314.960754,611.314636 
	C314.943451,566.497131 314.945496,521.679626 314.944031,476.862091 
	C314.942841,440.708099 314.937836,404.554077 314.952301,368.400085 
	C314.955322,360.825012 314.988251,360.493988 322.382080,360.428467 
	C336.694580,360.301575 351.013092,360.909088 365.323181,360.209351 
	C369.884918,359.986237 371.466888,361.641846 371.442719,366.532410 
	C371.231110,409.349731 371.314880,452.168488 371.339386,494.986847 
	C371.340576,497.074524 370.899170,499.267578 371.961884,501.217285 
	C374.651550,501.448212 375.677795,499.453979 377.022919,498.132324 
	C398.769440,476.765045 420.513702,455.395172 442.151733,433.918335 
	C444.817963,431.271942 447.539398,429.915802 451.359192,429.942108 
	C469.851776,430.069489 488.345795,429.977203 506.839294,430.001404 
	C508.440857,430.003479 510.215363,429.587555 511.658203,431.309601 
	C509.972504,434.772156 506.616028,436.834106 503.938599,439.937042 
z"/>
<path fill="#000000" opacity="1.000000" stroke="none" 
	d="
M209.713074,625.654297 
	C211.021744,620.221497 211.609970,615.116882 211.587341,609.933350 
	C211.420135,571.619263 211.188889,533.305298 211.138031,494.991058 
	C211.111282,474.831848 211.476257,454.672272 211.486557,434.512787 
	C211.488235,431.246552 212.542511,430.014252 215.747116,430.024048 
	C231.578735,430.072296 247.410690,430.036469 263.242432,429.992310 
	C266.248657,429.983917 267.632080,430.879730 267.632538,434.361359 
	C267.640167,491.682129 267.861511,549.002869 267.855927,606.323669 
	C267.854767,618.146240 267.004120,629.919983 263.546936,641.397217 
	C256.367249,665.232361 240.837204,680.066650 216.499191,685.373413 
	C197.338577,689.551270 178.452621,688.637390 160.202942,680.990906 
	C152.162796,677.622131 152.169510,677.294067 154.934418,669.265991 
	C158.132980,659.978699 161.531845,650.756104 164.507828,641.398621 
	C165.694260,637.668091 167.298859,637.196899 170.658768,638.710144 
	C175.363449,640.828918 180.282562,642.471191 185.525269,642.711914 
	C199.223938,643.340942 205.375809,639.079895 209.713074,625.654297 
z"/>
<path fill="#000000" opacity="1.000000" stroke="none" 
	d="
M595.345947,440.854370 
	C595.607727,444.230194 594.569824,447.352966 596.750366,449.996521 
	C599.046631,450.379059 599.933899,448.445618 601.178040,447.272736 
	C616.940247,432.413727 636.096436,427.352417 657.172180,427.705475 
	C659.974854,427.752411 661.025391,429.179443 661.025391,431.761230 
	C661.025452,446.090057 660.991150,460.419098 661.060242,474.747620 
	C661.079102,478.664032 659.250305,479.509155 655.681396,478.973083 
	C645.630920,477.463501 635.725403,478.185364 626.251587,482.069275 
	C608.704529,489.262878 600.098633,503.329163 599.514954,521.406006 
	C598.585327,550.201477 599.155884,579.044617 599.031433,607.867310 
	C598.983704,618.923218 599.954590,618.062927 588.705139,618.083679 
	C575.375793,618.108276 562.046387,618.073853 548.716980,618.054565 
	C542.328552,618.045288 542.017944,617.761230 542.052002,611.217651 
	C542.211548,580.565186 542.518555,549.912903 542.537781,519.260498 
	C542.554810,492.125458 542.246460,464.990265 542.116211,437.855011 
	C542.079407,430.181396 542.287476,430.011505 549.909302,430.000427 
	C562.572266,429.981995 575.235168,429.986145 587.898132,429.981171 
	C595.329712,429.978271 595.330017,429.978607 595.346802,437.385284 
	C595.349060,438.385010 595.346436,439.384766 595.345947,440.854370 
z"/>
<path fill="#000000" opacity="1.000000" stroke="none" 
	d="
M216.621796,354.548218 
	C231.008530,343.969604 252.339966,344.649902 263.927094,355.934540 
	C273.073944,364.842651 275.425415,375.627289 271.427826,387.539856 
	C267.492188,399.267731 258.604248,405.309082 246.667419,407.280823 
	C241.358612,408.157745 236.067429,408.034210 230.813614,406.955109 
	C218.891617,404.506409 210.500412,397.774567 207.102661,385.946167 
	C203.609070,373.784119 206.980072,363.307739 216.621796,354.548218 
z"/>
</svg>